Coordinates
version=1
nRows=54
nColumns=12
inDegrees=yes

Units are S.I. units (second, meters, Newtons, ...)
Angles are in degrees

endheader
time	SC_y	SC_z	SC_x	AC_y	AC_z	AC_x	GH_y	GH_z	GH_yy	EL_x	PS_y
       0.0              -38.13           37.6          40.87          53.56         -18.08         -5.879         -78.66          75.95          20.17          66.78          107.8
   0.03171              -38.13          37.59          40.87          53.56         -18.08          -5.88         -78.64          75.95          20.19          66.79          107.8
   0.06341              -38.13          37.59          40.87          53.56         -18.07         -5.881         -78.61          75.95          20.21           66.8          107.8
   0.09512              -38.13          37.58          40.87          53.56         -18.07         -5.882         -78.59          75.95          20.23          66.81          107.8
    0.1268              -38.13          37.58          40.87          53.57         -18.07         -5.883         -78.56          75.95          20.25          66.82          107.8
    0.1585              -38.13          37.57          40.87          53.57         -18.07         -5.884         -78.53          75.95          20.28          66.83          107.8
    0.1902              -38.13          37.56          40.87          53.57         -18.07         -5.885          -78.5          75.95           20.3          66.84          107.8
    0.2219              -38.13          37.56          40.87          53.57         -18.07         -5.886         -78.47          75.95          20.33          66.86          107.8
    0.2536              -38.13          37.55          40.87          53.57         -18.06         -5.888         -78.43          75.96          20.36          66.87          107.8
    0.2853              -38.12          37.54          40.87          53.57         -18.06         -5.889         -78.39          75.96          20.39          66.89          107.8
    0.3171              -38.12          37.53          40.87          53.58         -18.06         -5.891         -78.35          75.96          20.42          66.91          107.8
    0.3488              -38.12          37.52          40.87          53.58         -18.06         -5.892          -78.3          75.96          20.46          66.92          107.8
    0.3805              -38.12          37.51          40.87          53.58         -18.05         -5.894         -78.26          75.96           20.5          66.94          107.7
    0.4122              -38.12           37.5          40.86          53.58         -18.05         -5.896          -78.2          75.97          20.54          66.96          107.7
    0.4439              -38.11          37.49          40.86          53.59         -18.05         -5.898         -78.15          75.97          20.58          66.99          107.7
    0.4756              -38.11          37.47          40.86          53.59         -18.04           -5.9         -78.09          75.97          20.63          67.01          107.7
    0.5073              -38.11          37.46          40.86          53.59         -18.04         -5.903         -78.02          75.97          20.69          67.04          107.7
     0.539              -38.11          37.44          40.86           53.6         -18.04         -5.905         -77.95          75.98          20.74          67.07          107.7
    0.5707               -38.1          37.42          40.86           53.6         -18.03         -5.908         -77.87          75.98          20.81           67.1          107.7
    0.6024               -38.1          37.41          40.86          53.61         -18.03         -5.911         -77.78          75.99          20.88          67.14          107.7
    0.6341               -38.1          37.38          40.86          53.61         -18.02         -5.915         -77.69          75.99          20.95          67.18          107.7
    0.6658              -38.09          37.36          40.86          53.62         -18.02         -5.919         -77.58          75.99          21.04          67.22          107.7
    0.6975              -38.09          37.34          40.86          53.62         -18.01         -5.923         -77.47           76.0          21.13          67.27          107.7
    0.7292              -38.08          37.31          40.86          53.63          -18.0         -5.928         -77.34          76.01          21.23          67.32          107.7
    0.7609              -38.08          37.28          40.86          53.64         -17.99         -5.933         -77.19          76.01          21.34          67.38          107.7
    0.7926              -38.07          37.24          40.85          53.65         -17.98         -5.939         -77.04          76.02          21.47          67.44          107.7
    0.8243              -38.06           37.2          40.85          53.65         -17.97         -5.945         -76.86          76.03          21.61          67.51          107.7
     0.856              -38.05          37.16          40.85          53.67         -17.96         -5.952         -76.66          76.04          21.77          67.59          107.7
    0.8878              -38.04          37.11          40.85          53.68         -17.95         -5.961         -76.43          76.05          21.95          67.69          107.7
    0.9195              -38.03          37.05          40.85          53.69         -17.93          -5.97         -76.17          76.06          22.16          67.79          107.7
    0.9512              -38.02          36.98          40.84          53.71         -17.92         -5.981         -75.88          76.07          22.39          67.91          107.6
    0.9829              -38.01          36.91          40.84          53.72          -17.9         -5.993         -75.54          76.09          22.66          68.05          107.6
     1.015              -37.99          36.82          40.84          53.74         -17.88         -6.007         -75.15          76.11          22.97          68.21          107.6
     1.046              -37.97          36.72          40.83          53.77         -17.85         -6.024          -74.7          76.13          23.33          68.39          107.6
     1.078              -37.95          36.61          40.83           53.8         -17.82         -6.043         -74.17          76.15          23.76          68.61          107.6
      1.11              -37.93          36.47          40.82          53.83         -17.79         -6.066         -73.55          76.18          24.25          68.86          107.5
     1.141               -37.9          36.31          40.81          53.87         -17.74         -6.093         -72.81          76.21          24.84          69.16          107.5
     1.173              -37.86          36.11          40.81          53.91         -17.69         -6.126         -71.92          76.25          25.55          69.52          107.5
     1.205              -37.82          35.87           40.8          53.97         -17.63         -6.165         -70.85           76.3          26.41          69.96          107.4
     1.237              -37.77          35.58          40.78          54.04         -17.56         -6.213         -69.53          76.36          27.46           70.5          107.4
     1.268               -37.7          35.22          40.77          54.12         -17.46         -6.272         -67.92          76.44          28.75          71.16          107.3
       1.3              -37.62          34.78          40.75          54.23         -17.35         -6.346          -65.9          76.53          30.36          71.98          107.2
     1.332              -37.52          34.21          40.73          54.36          -17.2         -6.439         -63.35          76.65          32.39          73.02          107.1
     1.363              -37.39           33.5           40.7          54.53         -17.02         -6.557         -60.12          76.79          34.98          74.33          107.0
     1.395              -37.22          32.58          40.66          54.75         -16.78         -6.708         -55.98          76.98          38.28          76.02          106.8
     1.427               -37.0          31.41          40.61          55.02         -16.48         -6.902         -50.67          77.23          42.52          78.18          106.5
     1.458              -36.73          29.91          40.55          55.38         -16.09          -7.15         -43.88          77.54          47.94          80.95          106.2
      1.49              -36.38          28.02          40.47          55.82          -15.6         -7.462         -35.35          77.93          54.75          84.43          105.9
     1.522              -35.96          25.72          40.37          56.37         -15.01         -7.842         -24.95           78.4          63.05          88.66          105.4
     1.554              -35.48          23.06          40.26           57.0         -14.32         -8.283          -12.9          78.95          72.67          93.57          104.9
     1.585              -34.95          20.17          40.14          57.68         -13.57          -8.76          0.152          79.55          83.08          98.89          104.3
     1.617              -34.42          17.29          40.01          58.36         -12.83         -9.237           13.2          80.15           93.5          104.2          103.8
     1.649              -33.93          14.62           39.9          58.99         -12.14         -9.677          25.25           80.7          103.1          109.1          103.2
      1.68              -33.51          12.32          39.81          59.53         -11.55         -10.06          35.65          81.17          111.4          113.4          102.8
